<svg width="25" height="24" viewBox="0 0 25 24" fill="none" xmlns="http://www.w3.org/2000/svg">
<path d="M2.81199 12.3481C2.72865 12.1236 2.72865 11.8766 2.81199 11.6521C3.62369 9.68397 5.0015 8.00116 6.77076 6.81701C8.54001 5.63287 10.621 5.00073 12.75 5.00073C14.8789 5.00073 16.96 5.63287 18.7292 6.81701C20.4985 8.00116 21.8763 9.68397 22.688 11.6521C22.7713 11.8766 22.7713 12.1236 22.688 12.3481C21.8763 14.3163 20.4985 15.9991 18.7292 17.1832C16.96 18.3674 14.8789 18.9995 12.75 18.9995C10.621 18.9995 8.54001 18.3674 6.77076 17.1832C5.0015 15.9991 3.62369 14.3163 2.81199 12.3481Z" stroke="#1D56EE" strokeWidth="1.5" strokeLinecap="round" strokeLinejoin="round"/>
<path d="M12.75 15C14.4069 15 15.75 13.6569 15.75 12C15.75 10.3431 14.4069 9 12.75 9C11.0931 9 9.75 10.3431 9.75 12C9.75 13.6569 11.0931 15 12.75 15Z" stroke="#1D56EE" strokeWidth="1.5" strokeLinecap="round" strokeLinejoin="round"/>
</svg>
