<svg width="24" height="24" viewBox="0 0 24 24" fill="none" xmlns="http://www.w3.org/2000/svg">
  <path fill-rule="evenodd" clip-rule="evenodd" d="M9 1.5H5.625C4.589 1.5 3.75 2.34 3.75 3.375V20.625C3.75 21.66 4.59 22.5 5.625 22.5H18.375C19.41 22.5 20.25 21.66 20.25 20.625V12.75C20.25 11.7554 19.8549 10.8016 19.1517 10.0983C18.4484 9.39509 17.4946 9 16.5 9H14.625C14.1277 9 13.6508 8.80246 13.2992 8.45083C12.9475 8.0992 12.75 7.62228 12.75 7.125V5.25C12.75 4.25544 12.3549 3.30161 11.6517 2.59835C10.9484 1.89509 9.99456 1.5 9 1.5Z" fill="#E53E3E"/>
  <path d="M15.75 10.97L13.78 12.94L15.75 14.91C16.0656 15.2255 16.0656 15.7335 15.75 16.049C15.4345 16.3646 14.9265 16.3646 14.611 16.049L12.64 14.08L10.67 16.05C10.3545 16.3655 9.84654 16.3655 9.531 16.05C9.21546 15.7345 9.21546 15.2265 9.531 14.911L11.5 12.94L9.53 10.97C9.21446 10.6545 9.21446 10.1465 9.53 9.831C9.84554 9.51554 10.3535 9.51554 10.669 9.831L12.64 11.8L14.61 9.83C14.9255 9.51454 15.4335 9.51454 15.749 9.83C16.0645 10.1455 16.0645 10.6535 15.75 10.97Z" fill="white"/>
  <path d="M12.971 1.81598C13.7975 2.76894 14.2518 3.98853 14.25 5.24998V7.12498C14.25 7.33198 14.418 7.49998 14.625 7.49998H16.5C17.7615 7.49823 18.981 7.95246 19.934 8.77898C19.494 7.10569 18.6175 5.57928 17.3941 4.35587C16.1707 3.13245 14.6443 2.25594 12.971 1.81598Z" fill="#E53E3E"/>
</svg>